<svg width="48" height="30" viewBox="0 0 48 30" fill="none" xmlns="http://www.w3.org/2000/svg">
<path opacity="0.9" fill-rule="evenodd" clip-rule="evenodd" d="M14.9242 0.0891791C16.5619 -0.00759461 18.1976 0.000147289 19.8353 0.000147289C19.8466 0.000147289 28.1336 0.000147289 28.1336 0.000147289C29.8033 0.000147289 31.4391 -0.00759461 33.0758 0.0891791C34.5638 0.176275 36.0132 0.362081 37.456 0.77724C40.4932 1.65014 43.1454 3.47336 45.0626 6.05818C46.9685 8.62656 48 11.7707 48 14.9991C48 18.2313 46.9685 21.3736 45.0626 23.942C43.1454 26.5258 40.4932 28.35 37.456 29.2229C36.0132 29.6381 34.5638 29.8229 33.0758 29.911C31.4391 30.0077 29.8033 29.999 28.1656 29.999C28.1544 29.999 19.8654 30 19.8654 30C18.1976 29.999 16.5619 30.0077 14.9242 29.911C13.4372 29.8229 11.9878 29.6381 10.5449 29.2229C7.50776 28.35 4.85553 26.5258 2.93835 23.942C1.03247 21.3736 0 18.2313 0 15.0001C0 11.7707 1.03247 8.62656 2.93835 6.05818C4.85553 3.47336 7.50776 1.65014 10.5449 0.77724C11.9878 0.362081 13.4372 0.176275 14.9242 0.0891791Z" fill="#666666"/>
<path fill-rule="evenodd" clip-rule="evenodd" d="M15 27C21.6274 27 27 21.6274 27 15C27 8.37258 21.6274 3 15 3C8.37258 3 3 8.37258 3 15C3 21.6274 8.37258 27 15 27Z" fill="#FCFCFC"/>
</svg>
