<svg width="151" height="40" viewBox="0 0 151 40" fill="none" xmlns="http://www.w3.org/2000/svg">
<rect width="150.924" height="40" fill="white"/>
<rect width="40" height="40" rx="20" fill="#F2F2F2"/>
<path d="M29.8483 22.3464C29.8482 24.9066 28.8318 27.3618 27.0219 29.1721C25.2118 30.9825 22.7564 32 20.1966 32C17.6369 31.9999 15.1822 30.9824 13.3722 29.1721C11.5622 27.3618 10.545 24.9066 10.5449 22.3464V20.9944H29.8675L29.8483 22.3464ZM14.256 22.3464C14.2561 23.1264 14.4099 23.8988 14.7083 24.6195C15.0068 25.3403 15.4448 25.9956 15.9964 26.5474C16.5481 27.0991 17.2032 27.5371 17.924 27.8357C18.6445 28.1342 19.4167 28.288 20.1966 28.2881C20.9766 28.2881 21.7494 28.1343 22.4701 27.8357C23.1908 27.5371 23.846 27.0991 24.3976 26.5474C24.9492 25.9956 25.3872 25.3403 25.6858 24.6195C25.9841 23.8988 26.137 23.1264 26.1371 22.3464H24.0272C24.0271 22.8492 23.928 23.3471 23.7357 23.8116C23.5432 24.2763 23.261 24.6992 22.9054 25.0549C22.5498 25.4106 22.1271 25.6928 21.6624 25.8853C21.1978 26.0777 20.6994 26.1768 20.1966 26.1768C19.6939 26.1768 19.1961 26.0776 18.7316 25.8853C18.267 25.6928 17.8443 25.4106 17.4886 25.0549C17.133 24.6992 16.8509 24.2764 16.6584 23.8116C16.4661 23.3471 16.367 22.8492 16.3669 22.3464H14.256ZM30.3776 15.5172C31.398 16.2714 32 17.465 32 18.7339V20.9944H8V18.7753C8 17.4832 8.6241 16.2707 9.67562 15.5199L20.2074 8L30.3776 15.5172ZM29.8675 13.7728L26.6405 11.5712V9.06592H29.8675V13.7728Z" fill="#28A453"/>
<path d="M54.3306 28.4193L47.4113 19.5161L54.1129 11.3387H58.8064L51.2581 20.2177V18.6693L59.0484 28.4193H54.3306ZM44 28.4193V11.3387H47.7984V28.4193H44Z" fill="black"/>
<path d="M62.4602 28.4193L57.4764 16.6613H61.4683L64.8554 26.4597H63.1135L66.5006 16.6613H70.4199L65.4361 28.4193H62.4602Z" fill="black"/>
<path d="M76.3337 28.6613C75.2531 28.6613 74.2853 28.3951 73.4305 27.8629C72.5918 27.3306 71.9224 26.6048 71.4224 25.6855C70.9386 24.7661 70.6966 23.7177 70.6966 22.5403C70.6966 21.3629 70.9386 20.3145 71.4224 19.3951C71.9224 18.4758 72.5918 17.75 73.4305 17.2177C74.2853 16.6855 75.2531 16.4193 76.3337 16.4193C77.1241 16.4193 77.8337 16.5726 78.4628 16.879C79.1079 17.1855 79.6321 17.6129 80.0353 18.1613C80.4386 18.6935 80.6644 19.3064 80.7128 20V25.0806C80.6644 25.7742 80.4386 26.3951 80.0353 26.9435C79.6482 27.4758 79.1321 27.8951 78.487 28.2016C77.8418 28.508 77.1241 28.6613 76.3337 28.6613ZM77.0837 25.3226C77.8741 25.3226 78.5112 25.0645 78.995 24.5484C79.4789 24.0161 79.7208 23.3468 79.7208 22.5403C79.7208 21.9919 79.6079 21.508 79.3821 21.0887C79.1724 20.6693 78.866 20.3468 78.4628 20.1209C78.0757 19.879 77.6241 19.758 77.1079 19.758C76.5918 19.758 76.1321 19.879 75.7289 20.1209C75.3418 20.3468 75.0273 20.6693 74.7853 21.0887C74.5595 21.508 74.4466 21.9919 74.4466 22.5403C74.4466 23.0726 74.5595 23.5484 74.7853 23.9677C75.0112 24.3871 75.3257 24.7177 75.7289 24.9597C76.1321 25.2016 76.5837 25.3226 77.0837 25.3226ZM79.5757 28.4193V25.25L80.1321 22.3951L79.5757 19.5403V16.6613H83.2047V28.4193H79.5757Z" fill="black"/>
<path d="M85.811 28.4193V16.6613H89.5126V28.4193H85.811ZM89.5126 21.9597L88.7203 20.75C88.7203 20.75 88.7868 18.7586 89.5126 18.0005C90.2384 17.2424 91.2397 16.6613 92.53 16.6613C92.7993 16.6613 92.9481 16.6613 92.9481 16.6613V19.8064C92.9481 19.8064 91.8271 19.6855 91.5207 19.6855C90.9078 19.6855 90.4158 19.879 90.0449 20.2661C89.69 20.6371 89.5126 21.2016 89.5126 21.9597Z" fill="black"/>
<path d="M97.1672 28.4193V11.7984H100.869V28.4193H97.1672ZM94.5059 19.8064V16.6613H103.53V19.8064H94.5059Z" fill="black"/>
<path d="M107.53 28.616V11.6H111.826V28.616H107.53ZM117.946 28.616V11.6H122.242V28.616H117.946ZM109.978 21.704V18.104H119.506V21.704H109.978Z" fill="#3C3C43" fill-opacity="0.6"/>
<path d="M130.36 28.88C129.256 28.88 128.272 28.664 127.408 28.232C126.56 27.784 125.888 27.168 125.392 26.384C124.912 25.584 124.672 24.68 124.672 23.672V16.88H128.848V23.672C128.848 23.992 128.912 24.272 129.04 24.512C129.168 24.752 129.344 24.936 129.568 25.064C129.792 25.192 130.056 25.256 130.36 25.256C130.808 25.256 131.168 25.112 131.44 24.824C131.728 24.536 131.872 24.152 131.872 23.672V16.88H136.048V23.672C136.048 24.696 135.808 25.6 135.328 26.384C134.848 27.168 134.176 27.784 133.312 28.232C132.464 28.664 131.48 28.88 130.36 28.88Z" fill="#3C3C43" fill-opacity="0.6"/>
<path d="M145.164 28.856C144.412 28.856 143.716 28.712 143.076 28.424C142.436 28.12 141.908 27.712 141.492 27.2C141.076 26.688 140.82 26.128 140.724 25.52V19.784C140.82 19.176 141.076 18.632 141.492 18.152C141.924 17.672 142.46 17.304 143.1 17.048C143.74 16.776 144.428 16.64 145.164 16.64C146.3 16.64 147.3 16.904 148.164 17.432C149.028 17.944 149.7 18.664 150.18 19.592C150.676 20.52 150.924 21.576 150.924 22.76C150.924 23.928 150.676 24.976 150.18 25.904C149.7 26.816 149.028 27.536 148.164 28.064C147.3 28.592 146.3 28.856 145.164 28.856ZM138.18 28.616V11.12H142.356V19.76L141.66 22.592L142.26 25.472V28.616H138.18ZM144.42 25.136C144.868 25.136 145.26 25.032 145.596 24.824C145.948 24.616 146.22 24.336 146.412 23.984C146.604 23.616 146.7 23.2 146.7 22.736C146.7 22.288 146.604 21.888 146.412 21.536C146.22 21.168 145.948 20.88 145.596 20.672C145.244 20.464 144.844 20.36 144.396 20.36C143.948 20.36 143.548 20.464 143.196 20.672C142.86 20.88 142.596 21.16 142.404 21.512C142.212 21.864 142.116 22.272 142.116 22.736C142.116 23.216 142.212 23.64 142.404 24.008C142.596 24.36 142.868 24.64 143.22 24.848C143.572 25.04 143.972 25.136 144.42 25.136Z" fill="#3C3C43" fill-opacity="0.6"/>
</svg>
